<svg height="512pt" viewBox="0 -42 512.00004 512" width="512pt" xmlns="http://www.w3.org/2000/svg"><path d="m132.410156 413.722656-123.589844-199.734375 123.589844-199.734375 123.585938 199.734375zm0 0" fill="#b3d8f4"/><path d="m38.820312 213.988281 108.589844-175.492187-15-24.242188-123.589844 199.734375 123.589844 199.734375 15-24.242187zm0 0" fill="#57a4ff"/><path d="m8.820312 213.988281 123.589844-47.441406 123.585938 47.441406-123.585938 47.445313zm0 0" fill="#57a4ff"/><path d="m479.5 127.996094h-276.710938l53.207032 85.992187-53.101563 85.820313h276.605469l25-25v-121.8125zm0 0" fill="#ffe477"/><path d="m372.199219 269.265625-49.875-61.929687 24.429687-19.597657 27.535156 34.140625 60.9375-63.335937 22.59375 21.78125zm0 0" fill="#ffb655"/><path d="m342.199219 269.265625-49.875-61.929687 24.429687-19.597657 27.535156 34.140625 60.9375-63.335937 22.589844 21.78125zm0 0" fill="#b6e892"/><path d="m38.820312 213.988281 108.589844-41.683593-15-5.757813-123.589844 47.441406 123.589844 47.445313 15-5.757813zm0 0" fill="#006df0"/><path d="m232.789062 127.996094h-30l53.207032 85.992187-53.101563 85.820313h30l53.101563-85.820313zm0 0" fill="#ffb655"/><path d="m374.289062 221.878906 46.5-48.332031-15.5625-15.003906-44.617187 46.375zm0 0" fill="#7ccc92"/><path d="m322.324219 207.335938 6.214843-4.984376-11.785156-14.613281-24.429687 19.597657 49.875 61.929687 16.332031-16.96875zm0 0" fill="#7ccc92"/><path d="m231.71875 160.496094h62.527344v-15h-71.808594l-90.03125-145.496094-132.40625 213.988281 132.40625 213.988281 132.410156-213.988281zm-106.8125 129.140625v97.710937l-98-158.382812 105.503906 40.5 105.5-40.5-98 158.382812v-97.707031h-15.003906zm0-128.246094-87.929688 33.753906 5.375 14.003907 82.554688-31.6875v58.972656h15v-58.972656l82.554688 31.6875 5.375-14.003907-87.929688-33.753906v-120.761719l104.949219 169.605469-112.449219 43.164063-112.441406-43.164063 104.941406-169.605469zm0 0"/><path d="m341.695312 280.597656 96.722657-100.472656-33.390625-32.191406-60.242188 62.613281-26.890625-33.339844-36.128906 28.980469zm2.101563-47.386718 61.628906-64.058594 11.792969 11.371094-74.519531 77.40625-39.820313-49.445313 12.734375-10.214844zm0 0"/><path d="m482.605469 120.496094h-259.816407v15h253.605469l20.605469 20.605468v115.601563l-20.605469 20.605469h-253.5v15.003906h259.710938l29.394531-29.394531v-128.027344zm0 0"/><g fill="#fff"><path d="m194.453125 176.292969-24.972656-40.359375 12.757812-7.890625 24.96875 40.355469zm-30.234375-48.863281-7.894531-12.753907 12.757812-7.894531 7.894531 12.757812zm-13.152344-21.257813-7.894531-12.753906 12.757813-7.894531 7.890624 12.753906zm0 0"/><path d="m472.25 282.308594h-79.5v-15h73.289062l5.960938-5.960938v-36.859375h15v43.074219zm14.75-67.820313h-15v-15h15zm0-25h-15v-15h15zm0 0"/></g></svg>