<?xml version="1.0" encoding="iso-8859-1"?>
<!-- Generator: Adobe Illustrator 21.0.0, SVG Export Plug-In . SVG Version: 6.00 Build 0)  -->
<svg xmlns="http://www.w3.org/2000/svg" xmlns:xlink="http://www.w3.org/1999/xlink" version="1.1" id="Capa_1" x="0px" y="0px" viewBox="0 0 512 512" style="enable-background:new 0 0 512 512;" xml:space="preserve" width="512" height="512">
<g>
	<circle style="fill:#FFE200;" cx="256" cy="256" r="256"/>
	<path style="fill:#DDCE4A;" d="M256,79.07l-93.696,162.734l45.158,44.725L256,432.93l69.512,69.512   c85.501-24.068,152.862-91.429,176.93-176.93L256,79.07z"/>
	<g>
		<path style="fill:#CCF0FF;" d="M256,286.186l-93.696-44.382L256,79.07l93.696,162.734L256,286.186z"/>
		<polygon style="fill:#80C9FF;" points="256,79.07 256,286.186 349.696,241.804   "/>
		<g>
			<path style="fill:#80C9FF;" d="M256,432.93l-96.954-169.434L256,309.62l96.954-46.124L256,432.93z"/>
		</g>
		<polygon style="fill:#FF6E84;" points="256,200.058 162.304,241.804 162.304,241.804 256,286.186 349.696,241.804     349.696,241.804   "/>
		<polygon style="fill:#FE3B7F;" points="349.696,241.804 349.696,241.804 349.696,241.804 256,200.058 256,286.186   "/>
		<polygon style="fill:#4DB2FF;" points="352.954,263.496 256,309.62 256,432.93   "/>
	</g>
</g>















</svg>
